<svg width="43" height="43" viewBox="0 0 43 43" fill="none" xmlns="http://www.w3.org/2000/svg">
<rect width="43" height="43" rx="12" fill="#E4DEFC"/>
<path d="M23.0227 29.75V27.5H30.5227V31.25C30.5227 32.5156 29.4915 33.5 28.2727 33.5H8.77271C7.50708 33.5 6.52271 32.5156 6.52271 31.25V17.75C6.52271 16.5312 7.50708 15.5 8.77271 15.5H14.0227V29.75C14.0227 30.1719 14.3508 30.5 14.7727 30.5H22.2727C22.6477 30.5 23.0227 30.1719 23.0227 29.75ZM11.3977 30.0781V28.6719C11.3977 28.4844 11.1633 28.25 10.9758 28.25H9.56958C9.33521 28.25 9.14771 28.4844 9.14771 28.6719V30.0781C9.14771 30.3125 9.33521 30.5 9.56958 30.5H10.9758C11.1633 30.5 11.3977 30.3125 11.3977 30.0781ZM11.3977 25.2031V23.7969C11.3977 23.6094 11.1633 23.375 10.9758 23.375H9.56958C9.33521 23.375 9.14771 23.6094 9.14771 23.7969V25.2031C9.14771 25.4375 9.33521 25.625 9.56958 25.625H10.9758C11.1633 25.625 11.3977 25.4375 11.3977 25.2031ZM11.3977 20.3281V18.9219C11.3977 18.7344 11.1633 18.5 10.9758 18.5H9.56958C9.33521 18.5 9.14771 18.6875 9.14771 18.9219V20.3281C9.14771 20.5625 9.33521 20.75 9.56958 20.75H10.9758C11.1633 20.75 11.3977 20.5625 11.3977 20.3281ZM25.6477 28.6719V30.0781C25.6477 30.3125 25.8352 30.5 26.0696 30.5H27.4758C27.6633 30.5 27.8977 30.3125 27.8977 30.0781V28.6719C27.8977 28.4844 27.6633 28.25 27.4758 28.25H26.0696C25.8352 28.25 25.6477 28.4844 25.6477 28.6719ZM34.2258 9.5C35.4915 9.5 36.5227 10.5312 36.4758 11.75V23.75C36.4758 25.0156 35.4446 26 34.2258 26H17.7258C16.4602 26 15.4758 25.0156 15.4758 23.75V11.75C15.4758 10.5312 16.5071 9.5 17.7258 9.5H34.2258ZM20.7258 12.5C19.929 12.5 19.2258 13.2031 19.2258 14C19.2258 14.8438 19.929 15.5 20.7258 15.5C21.5227 15.5 22.2258 14.8438 22.2258 14C22.2258 13.2031 21.5227 12.5 20.7258 12.5ZM33.429 22.625C33.5227 22.3906 33.5227 22.0625 33.3821 21.875L28.3665 14.375C28.2258 14.1406 27.9915 14 27.7571 14C27.4758 14 27.2415 14.1406 27.1008 14.375L24.1477 18.7812L23.1165 17.3281C22.9758 17.1406 22.7415 17 22.5071 17C22.2727 17 22.0852 17.1406 21.9446 17.3281L18.6633 21.8281C18.4758 22.0625 18.4758 22.3438 18.5696 22.625C18.7102 22.8594 18.9446 23 19.2258 23H32.7727C33.0071 23 33.2883 22.8594 33.429 22.625Z" fill="#6E56CF"/>
</svg>
